HIERARCHY
ROOT hip
{
  OFFSET 0 0 0
  CHANNELS 6 Xposition Yposition Zposition Zrotation Yrotation Xrotation
  JOINT abdomen
  {
    OFFSET 0 20.6881 -0.73152
    CHANNELS 3 Zrotation Xrotation Yrotation
    JOINT chest
    {
      OFFSET 0 11.7043 -0.48768
      CHANNELS 3 Zrotation Xrotation Yrotation
      JOINT neck
      {
        OFFSET 0 22.1894 -2.19456
        CHANNELS 3 Zrotation Xrotation Yrotation
        JOINT head
        {
          OFFSET -0.24384 7.07133 1.2192
          CHANNELS 3 Zrotation Xrotation Yrotation
          JOINT leftEye
          {
            OFFSET 4.14528 8.04674 8.04672
            CHANNELS 3 Zrotation Xrotation Yrotation
            End Site
            {
              OFFSET 1 0 0
            }
          }
          JOINT rightEye
          {
            OFFSET -3.6576 8.04674 8.04672
            CHANNELS 3 Zrotation Xrotation Yrotation
            End Site
            {
              OFFSET 1 0 0
            }
          }
        }
      }
      JOINT rCollar
      {
        OFFSET -2.68224 19.2634 -4.8768
        CHANNELS 3 Zrotation Xrotation Yrotation
        JOINT rShldr
        {
          OFFSET -8.77824 -1.95073 1.46304
          CHANNELS 3 Zrotation Xrotation Yrotation
          JOINT rForeArm
          {
            OFFSET -28.1742 -1.7115 0.48768
            CHANNELS 3 Zrotation Xrotation Yrotation
            JOINT rHand
            {
              OFFSET -22.5879 0.773209 7.07136
              CHANNELS 3 Zrotation Xrotation Yrotation
              JOINT rThumb1
              {
                OFFSET -1.2192 -0.487915 3.41376
                CHANNELS 3 Zrotation Xrotation Yrotation
                JOINT rThumb2
                {
                  OFFSET -3.37035 -0.52449 3.41376
                  CHANNELS 3 Zrotation Xrotation Yrotation
                  End Site
                  {
                    OFFSET -1.78271 -1.18214 1.43049
                  }
                }
              }
              JOINT rIndex1
              {
                OFFSET -7.75947 0.938293 5.60832
                CHANNELS 3 Zrotation Xrotation Yrotation
                JOINT rIndex2
                {
                  OFFSET -2.54057 -0.884171 1.56538
                  CHANNELS 3 Zrotation Xrotation Yrotation
                  End Site
                  {
                    OFFSET -1.62519 -0.234802 1.16502
                  }
                }
              }
              JOINT rMid1
              {
                OFFSET -8.24714 1.18213 3.41376
                CHANNELS 3 Zrotation Xrotation Yrotation
                JOINT rMid2
                {
                  OFFSET -3.10165 -0.590103 1.0647
                  CHANNELS 3 Zrotation Xrotation Yrotation
                  End Site
                  {
                    OFFSET -2.48547 -0.328903 0.83742
                  }
                }
              }
              JOINT rRing1
              {
                OFFSET -8.82822 0.546677 1.51678
                CHANNELS 3 Zrotation Xrotation Yrotation
                JOINT rRing2
                {
                  OFFSET -2.60934 -0.819778 -0.0198488
                  CHANNELS 3 Zrotation Xrotation Yrotation
                  End Site
                  {
                    OFFSET -2.33842 -0.294052 0.168128
                  }
                }
              }
              JOINT rPinky1
              {
                OFFSET -8.27202 -0.0477905 -0.4584
                CHANNELS 3 Zrotation Xrotation Yrotation
                JOINT rPinky2
                {
                  OFFSET -1.82734 -0.647385 -0.700984
                  CHANNELS 3 Zrotation Xrotation Yrotation
                  End Site
                  {
                    OFFSET -1.69225 -0.51767 -0.607171
                  }
                }
              }
            }
          }
        }
      }
      JOINT lCollar
      {
        OFFSET 2.68224 19.2634 -4.8768
        CHANNELS 3 Zrotation Xrotation Yrotation
        JOINT lShldr
        {
          OFFSET 8.77824 -1.95073 1.46304
          CHANNELS 3 Zrotation Xrotation Yrotation
          JOINT lForeArm
          {
            OFFSET 28.1742 -1.7115 0.48768
            CHANNELS 3 Zrotation Xrotation Yrotation
            JOINT lHand
            {
              OFFSET 22.5879 0.773209 7.07136
              CHANNELS 3 Zrotation Xrotation Yrotation
              JOINT lThumb1
              {
                OFFSET 1.2192 -0.487915 3.41376
                CHANNELS 3 Zrotation Xrotation Yrotation
                JOINT lThumb2
                {
                  OFFSET 3.37035 -0.52449 3.41376
                  CHANNELS 3 Zrotation Xrotation Yrotation
                  End Site
                  {
                    OFFSET 1.78271 -1.18214 1.43049
                  }
                }
              }
              JOINT lIndex1
              {
                OFFSET 7.75947 0.938293 5.60832
                CHANNELS 3 Zrotation Xrotation Yrotation
                JOINT lIndex2
                {
                  OFFSET 2.54057 -0.884171 1.56538
                  CHANNELS 3 Zrotation Xrotation Yrotation
                  End Site
                  {
                    OFFSET 1.62519 -0.234802 1.16502
                  }
                }
              }
              JOINT lMid1
              {
                OFFSET 8.24714 1.18213 3.41376
                CHANNELS 3 Zrotation Xrotation Yrotation
                JOINT lMid2
                {
                  OFFSET 3.10165 -0.590103 1.0647
                  CHANNELS 3 Zrotation Xrotation Yrotation
                  End Site
                  {
                    OFFSET 2.48547 -0.328903 0.83742
                  }
                }
              }
              JOINT lRing1
              {
                OFFSET 8.82822 0.546677 1.51678
                CHANNELS 3 Zrotation Xrotation Yrotation
                JOINT lRing2
                {
                  OFFSET 2.60934 -0.819778 -0.0198488
                  CHANNELS 3 Zrotation Xrotation Yrotation
                  End Site
                  {
                    OFFSET 2.33842 -0.294052 0.168128
                  }
                }
              }
              JOINT lPinky1
              {
                OFFSET 8.27202 -0.0477905 -0.4584
                CHANNELS 3 Zrotation Xrotation Yrotation
                JOINT lPinky2
                {
                  OFFSET 1.82734 -0.647385 -0.700984
                  CHANNELS 3 Zrotation Xrotation Yrotation
                  End Site
                  {
                    OFFSET 1.69225 -0.51767 -0.607171
                  }
                }
              }
            }
          }
        }
      }
    }
  }
  JOINT rButtock
  {
    OFFSET -8.77824 4.35084 1.2192
    CHANNELS 3 Zrotation Xrotation Yrotation
    JOINT rThigh
    {
      OFFSET 0 -1.70687 -2.19456
      CHANNELS 3 Zrotation Xrotation Yrotation
      JOINT rShin
      {
        OFFSET 0 -36.8199 0.73152
        CHANNELS 3 Zrotation Xrotation Yrotation
        JOINT rFoot
        {
          OFFSET 0.73152 -45.1104 -5.12064
          CHANNELS 3 Zrotation Xrotation Yrotation
          End Site
          {
            OFFSET -1.1221 -3.69964 12.103
          }
        }
      }
    }
  }
  JOINT lButtock
  {
    OFFSET 8.77824 4.35084 1.2192
    CHANNELS 3 Zrotation Xrotation Yrotation
    JOINT lThigh
    {
      OFFSET 0 -1.70687 -2.19456
      CHANNELS 3 Zrotation Xrotation Yrotation
      JOINT lShin
      {
        OFFSET 0 -36.8199 0.73152
        CHANNELS 3 Zrotation Xrotation Yrotation
        JOINT lFoot
        {
          OFFSET -0.73152 -45.1104 -5.12064
          CHANNELS 3 Zrotation Xrotation Yrotation
          End Site
          {
            OFFSET 1.1221 -3.69964 12.103
          }
        }
      }
    }
  }
}
MOTION
Frames:	4
Frame Time:	0.03333
0.0 0.0 0.0 0.0 0.0 0.0 0.0 0.0 0.0 0.0 0.0 0.0 0.0 0.0 0.0 0.0 0.0 0.0 0.0 0.0 0.0 0.0 0.0 0.0 0.0 0.0 0.0 0.0 0.0 0.0 0.0 0.0 0.0 0.0 0.0 0.0 0.0 0.0 0.0 0.0 0.0 0.0 0.0 0.0 0.0 0.0 0.0 0.0 0.0 0.0 0.0 0.0 0.0 0.0 0.0 0.0 0.0 0.0 0.0 0.0 0.0 0.0 0.0 0.0 0.0 0.0 0.0 0.0 0.0 0.0 0.0 0.0 0.0 0.0 0.0 0.0 0.0 0.0 0.0 0.0 0.0 0.0 0.0 0.0 0.0 0.0 0.0 0.0 0.0 0.0 0.0 0.0 0.0 0.0 0.0 0.0 0.0 0.0 0.0 0.0 0.0 0.0 0.0 0.0 0.0 0.0 0.0 0.0 0.0 0.0 0.0 0.0 0.0 0.0 0.0 0.0 0.0 0.0 0.0 0.0 0.0 0.0 0.0 0.0 0.0 0.0 0.0 0.0 0.0 0.0 0.0 0.0
0.0023 11.8093 0.0666 0.658999 -64.630827 -1.72132 -0.231213 5.18924 0.011318 5.405285 1.596869 -47.940121 -0.006964 -3.328961 101.014871 -86.512484 49.848061 -10.287853 -7.559611 -0.371777 5.622865 -5.15694 -0.181882 4.03718 109.865737 -37.094527 -178.309224 -25.455189 68.94838 -142.313442 126.639486 -78.183766 -70.02695 -37.528046 79.296545 -121.858074 32.391228 82.591327 -70.467645 -132.084462 0.649757 89.471474 -155.79348 -5.836134 161.124588 -9.267732 26.170152 4.582747 7.063724 62.517729 -25.000869 -14.710103 34.46141 13.564505 -74.404453 78.819615 79.207509 -136.686998 60.855828 156.507317 -13.266645 23.198322 14.338643 -16.544837 -41.830482 -21.964473 82.331442 -47.129255 -174.344589 -90.420019 -86.234502 -78.547139 74.077759 76.952205 119.926006 -169.735003 -2.170864 30.292221 105.844376 57.078786 -52.061203 15.208869 -2.39151 -18.272575 168.575738 -12.4507 -126.662274 54.921846 43.026893 -43.838946 12.229899 0.203901 1.617745 -85.9596 -78.396763 -58.473267 73.739755 50.170637 -67.635382 35.879349 79.587685 -53.448507 172.639814 -73.80455 153.179353 148.352292 13.22165 142.526682 -14.123507 -39.71403 -0.0 18.496243 37.954204 57.099034 0.370406 -5.002622 -50.410091 37.576839 -56.986476 -113.83786 61.783287 8.616178 78.683069 -28.288753 60.268954 -148.210318 -12.801007 1.813336 -97.643876 95.388251 30.109187 121.426282
-0.46290000000000003 21.6964 0.07339999999999999 0.069687 -71.740646 -3.79662 -11.467473 32.597379 -0.0 18.431499 -50.999072 16.834037 63.187314 75.738331 61.232371 -2.16687 34.405206 168.327789 -51.318411 1.562898 -3.252716 -43.897127 -4.377827 10.836441 -101.14586 77.294661 103.583925 95.352779 -32.038992 83.036181 31.330423 -20.813156 111.532846 9.48769 43.645403 -14.129846 -63.669613 36.986004 59.181713 -125.536128 12.21541 108.437864 -137.968075 -30.513585 127.433869 -38.134132 68.730819 -74.94173 13.131733 -68.733662 -136.387563 -149.475929 -51.207791 67.477723 73.847842 1.155062 -12.336085 -136.163781 -8.223189 173.26834 118.606625 16.785214 -2.510494 24.866414 32.75921 -14.102776 48.685119 74.884656 -78.410499 -48.288115 2.808999 -46.4524 -168.542012 49.59734 -25.800886 161.363695 33.7238 -88.562192 154.461236 -3.281232 -123.141766 145.09401 -10.371401 -45.709909 37.06983 -45.214832 99.347385 119.771974 79.249453 -65.041762 101.590822 -17.437308 135.105757 -31.616071 -21.429471 1.128458 -11.179371 4.038644 36.241244 -11.45485 43.285833 -7.068442 177.291376 36.910938 92.848527 -15.130582 21.92577 1.201961 -12.215885 12.755123 18.470958 47.347679 -66.654951 49.774886 60.143774 57.074166 -41.420614 -61.716601 32.282832 -38.643086 74.298794 24.580698 29.433183 -127.018139 23.034865 180.0 -36.057781 -67.573819 65.754401 101.684214 -12.305658 134.795765
-1.0181 23.2898 0.1258 -2.550552 -68.329415 0.130963 -11.788061 28.879142 -156.630345 5.92256 56.689059 162.042611 173.943051 40.247683 28.089344 8.685933 49.603241 96.74278 -36.042014 8.508523 -25.759244 -27.646683 5.484144 -22.029796 -54.438607 85.945923 62.052448 -119.010869 9.978994 113.786919 2.402296 -59.473352 -135.753961 133.421086 -31.291897 139.165856 179.060385 -37.140437 42.185456 -78.913553 -32.580961 32.305938 55.248365 -79.13647 -70.714844 -105.150098 -68.838136 -166.356087 -72.338259 -78.186296 138.506405 23.708019 53.882404 29.063735 -44.50126 -2.382344 177.19476 18.309077 3.297706 -6.241053 -46.549585 -36.544482 -160.793737 -160.421183 6.4953 -156.279691 27.248212 -74.392904 82.447215 8.191192 19.976094 39.714779 -100.651904 -55.624121 70.846432 112.977627 47.619193 -53.212324 83.406502 -67.727846 120.347274 32.495589 43.040902 -13.095149 97.509808 -62.609699 139.930326 143.587854 61.54904 -51.984097 -163.40881 34.750831 168.251818 -19.668597 -6.271787 -21.348115 168.341269 15.283226 131.099266 -132.595662 46.173749 130.738535 134.855695 0.430606 89.269749 -19.139589 -5.62916 13.317311 -6.625159 13.348768 26.705829 15.001352 -71.60555 -36.82703 -66.264752 45.658441 10.81149 20.452382 -21.823151 15.332817 126.844544 52.840291 36.489036 168.521646 36.294505 0.0 -28.102613 67.233666 101.212541 -129.95383 -7.859618 -42.46646
